# xmcd
#
# Track frame offsets: 
#        150
#        19127
#        37976
#        50250
#        66855
#        77146
#        96643
#        113535
#        136827
#        150705
#
# Disc length: 2333 seconds
#
# Revision: 0
# Processed by: cddbd v1.5.2PL0 Copyright (c) Steve Scherf et al.
# Submitted via: ExactAudioCopy v0.99pb3
#
DISCID=7a091b0a
DTITLE=Caroline Herring - Camilla
DYEAR=2012
DGENRE=Folk
TTITLE0=Camilla
TTITLE1=Black Mountain Lullaby
TTITLE2=Fireflies
TTITLE3=Maiden Voyage
TTITLE4=Traveling Shoes
TTITLE5=Summer Song
TTITLE6=White Dress
TTITLE7=Until You Go
TTITLE8=Flee As a Bird
TTITLE9=Joy Never Ends (Auld Long Syne)
EXTD=
EXTT0=
EXTT1=
EXTT2=
EXTT3=
EXTT4=
EXTT5=
EXTT6=
EXTT7=
EXTT8=
EXTT9=
PLAYORDER=
